# xmcd CD database file
#
# Track frame offsets:
#	150
#	16279
#	56182
#	72473
#	106050
#	129218
#	155336
#	176038
#
# Disc length: 2969 seconds
#
# Revision: 1
# Processed by: cddbd v1.5.2PL0 Copyright (c) Steve Scherf et al.
# Submitted via: CDex 1.51
#
DISCID=650b9708
DTITLE=The Ford Blues Band with Robben Ford and Chris Cain - The Butterfield - Bloomfield Concert
DYEAR=2006
DGENRE=Blues
TTITLE0=Killing Floor
TTITLE1=East - West Redux
TTITLE2=Groovin´ is easy
TTITLE3=I got a mind to give up living
TTITLE4=Lovin´ cup
TTITLE5=Peter´s trip
TTITLE6=Good morning little shoolgirl
TTITLE7=Blues for MB
EXTD=YEAR: 2006
EXTT0=
EXTT1=
EXTT2=
EXTT3=
EXTT4=
EXTT5=
EXTT6=
EXTT7=
PLAYORDER=
